<?xml version="1.0" encoding="UTF-8" standalone="no"?>
<!-- Created with Inkscape (http://www.inkscape.org/) -->
<svg id="svg2" xmlns:rdf="http://www.w3.org/1999/02/22-rdf-syntax-ns#" xmlns="http://www.w3.org/2000/svg" height="34" width="40" version="1.1" xmlns:cc="http://creativecommons.org/ns#" xmlns:xlink="http://www.w3.org/1999/xlink" xmlns:dc="http://purl.org/dc/elements/1.1/">
 <defs id="defs4">
  <linearGradient id="linearGradient3837" y2="333.19" gradientUnits="userSpaceOnUse" x2="368.97" gradientTransform="translate(0 -37.471)" y1="515.52" x1="366.72">
   <stop id="stop5443-2" style="stop-color:#060606" offset="0"/>
   <stop id="stop5445-4" style="stop-color:#2a2a2a" offset="1"/>
  </linearGradient>
  <linearGradient id="linearGradient3839" y2="472.03" gradientUnits="userSpaceOnUse" x2="484.71" gradientTransform="translate(33.231 11.944)" y1="472.03" x1="256.74">
   <stop id="stop5443" style="stop-color:#060606" offset="0"/>
   <stop id="stop5445" style="stop-color:#343434" offset="1"/>
  </linearGradient>
  <linearGradient id="linearGradient4945-9" y2="634.37" gradientUnits="userSpaceOnUse" x2="202.49" gradientTransform="matrix(1.2573 0 0 1 -52.11 0)" y1="623.48" x1="202.39">
   <stop id="stop4939-9" style="stop-color:#e90808" offset="0"/>
   <stop id="stop4941-7" style="stop-color:#b60000" offset="1"/>
  </linearGradient>
  <filter id="filter5815" color-interpolation-filters="sRGB">
   <feGaussianBlur id="feGaussianBlur5817" stdDeviation="0.42678198"/>
  </filter>
  <radialGradient id="radialGradient3864" gradientUnits="userSpaceOnUse" cy="355.36" cx="366.94" gradientTransform="matrix(1 0 0 .98824 -5.7382e-7 4.1807)" r="21.466">
   <stop id="stop3941-1" style="stop-color:#eece33;stop-opacity:.95055" offset="0"/>
   <stop id="stop5813-1" style="stop-color:#ff734e;stop-opacity:.81868" offset=".61062"/>
   <stop id="stop3943-5" style="stop-color:#ff2d2d;stop-opacity:0" offset="1"/>
  </radialGradient>
 </defs>
 <metadata id="metadata7">
  <rdf:RDF>
   <cc:Work rdf:about="">
    <dc:format>image/svg+xml</dc:format>
    <dc:type rdf:resource="http://purl.org/dc/dcmitype/StillImage"/>
    <dc:title/>
   </cc:Work>
  </rdf:RDF>
 </metadata>
 <g id="layer4" transform="translate(-182.48 -619.89)">
  <g id="g3912" style="opacity:0.94" transform="matrix(.10676 0 0 .10676 162.71 586.67)">
   <path id="path4669-1-5" d="m329.24 347.55c-70.746 25.019-116.98 105.89-103.95 177.93l302.91 0.38021c4.3642-24.174 0.92567-62.546-7.3897-87.492-15.358-46.074-41.103-73.463-83.584-88.535z" style="stroke-linejoin:round;stroke:#000;stroke-linecap:round;stroke-width:11.802"/>
   <path id="path4669-2" style="stroke:#000;stroke-width:11.8" d="m478.81 472.03c0 59.694-48.392 108.09-108.09 108.09-59.694 0-108.09-48.392-108.09-108.09 0-59.694 48.392-108.09 108.09-108.09 59.694 0 108.09 48.392 108.09 108.09z" transform="matrix(-.31622 -.94869 .94869 -.31622 49.242 1001)"/>
  </g>
 </g>
 <g id="layer2" transform="translate(-182.48 -619.89)">
  <g id="g5840" transform="matrix(.10676 0 0 .10676 163.27 587.3)">
   <g id="g5835">
    <path id="path4669-1" style="stroke:#585858;stroke-linecap:round;stroke-width:11.8;fill:url(#linearGradient3837)" d="m516.41 506.24c4.3642-24.174 2.9091-49.741-5.4062-74.688-15.358-46.074-50.707-79.866-93.188-94.938 0 0-20.697-8.1402-50.198-8.2023-29.501-0.0622-50.927 8.2023-50.927 8.2023-70.746 25.019-111.59 97.58-98.562 169.62"/>
   </g>
   <path id="path4669" style="stroke:#585858;stroke-width:11.8;fill:url(#linearGradient3839)" d="m478.81 472.03c0 59.694-48.392 108.09-108.09 108.09-59.694 0-108.09-48.392-108.09-108.09 0-59.694 48.392-108.09 108.09-108.09 59.694 0 108.09 48.392 108.09 108.09z" transform="matrix(-.31622 -.94869 .94869 -.31622 36.694 980.43)"/>
  </g>
  <rect id="rect5530-9" style="stroke-dashoffset:319.5;stroke:#252525;stroke-linecap:round;fill:none" height="3" width="5.0001" y="650.39" x="184.98"/>
  <rect id="rect5530" style="stroke-dashoffset:319.5;stroke:#767676;stroke-linecap:round;fill:none" height="3" width="5.0001" y="649.39" x="183.98"/>
  <rect id="rect5530-9-3" style="fill-opacity:0;stroke-dashoffset:319.5;stroke:#252525;stroke-linecap:round" height="3" width="5" y="650.39" x="215.98"/>
  <rect id="rect5530-5" style="stroke-dashoffset:319.5;stroke:#767676;stroke-linecap:round;fill:#767676" height="3" width="5" y="649.39" x="214.98"/>
 </g>
 <g id="layer1">
  <g id="g3763" transform="translate(-182.48 -615.11)">
   <path id="rect5578" d="m200.48 620.32c0-1.0794 0.64828-2.0226 1.9809-2.0226 1.2699 0 1.9692 0.90158 1.9947 1.9982 0 3.078 0.0244 12.116 0.0244 12.116-0.0742 1.0302-0.9885 2.0014-2.0444 2.0014s-1.937-1.1721-1.937-2.0253c-0.009-4.608-0.0184-7.7528-0.0185-12.068z" style="fill:url(#linearGradient4945-9)"/>
   <path id="path3936" style="filter:url(#filter5815);fill:url(#radialGradient3864)" d="m388.4 355.36c0 11.716-9.6105 21.213-21.466 21.213-11.855 0-21.466-9.4975-21.466-21.213s9.6105-21.213 21.466-21.213c11.855 0 21.466 9.4975 21.466 21.213z" transform="matrix(.088928 0 0 .088072 169.85 588.88)"/>
  </g>
 </g>
</svg>
